PathFileType	4	(X/Y/Z)	 2.8Hzhigh3min.trc
DataRate	CameraRate	NumFrames	NumMarkers	Units	OrigDataRate	OrigDataStartFrame	OrigNumFrames
200	200	10	35	m	200	626	1000
Frame#	Time	C7			LSH			RSH			MAN			RASI			LASI			HIPR			HIPL			RPSI			LPSI			COX			RTHI1			RTHI2			RTHI3			RTHI4			RSHA1			RSHA2			RSHA3			RSHA4			RHEEL			RMET5			RMET1			RTOE			LTHI1			LTHI2			LTHI3			LTHI4			LSHA1			LSHA2			LSHA3			LSHA4			LHEEL			LMET5			LMET1			LTOE			
		X1	Y1	Z1	X2	Y2	Z2	X3	Y3	Z3	X4	Y4	Z4	X5	Y5	Z5	X6	Y6	Z6	X7	Y7	Z7	X8	Y8	Z8	X9	Y9	Z9	X10	Y10	Z10	X11	Y11	Z11	X12	Y12	Z12	X13	Y13	Z13	X14	Y14	Z14	X15	Y15	Z15	X16	Y16	Z16	X17	Y17	Z17	X18	Y18	Z18	X19	Y19	Z19	X20	Y20	Z20	X21	Y21	Z21	X22	Y22	Z22	X23	Y23	Z23	X24	Y24	Z24	X25	Y25	Z25	X26	Y26	Z26	X27	Y27	Z27	X28	Y28	Z28	X29	Y29	Z29	X30	Y30	Z30	X31	Y31	Z31	X32	Y32	Z32	X33	Y33	Z33	X34	Y34	Z34	X35	Y35	Z35	
626	3.1300	-0.327019	1.361755	-0.580209	-0.293145	1.331429	-0.755514	-0.280007	1.342926	-0.406397	-0.205366	1.316271	-0.583523	-0.214910	0.929023	-0.482154	-0.201298	0.936433	-0.665477	-0.286773	0.968969	-0.441127	-0.268417	0.977714	-0.710161	-0.360349	0.957919	-0.519238	-0.353382	0.962999	-0.631300	-0.360282	0.973862	-0.578101	-0.296943	0.750744	-0.416282	-0.275219	0.695233	-0.410956	-0.213694	0.714611	-0.414292	-0.227503	0.774288	-0.419259	-0.275389	0.331997	-0.394448	-0.299667	0.296866	-0.393594	-0.250484	0.270544	-0.418892	-0.231590	0.306521	-0.421207	-0.427428	0.115402	-0.445817	-0.290117	0.032391	-0.389920	-0.260868	0.031609	-0.465642	-0.236378	0.023442	-0.457860	-0.269165	0.725540	-0.753010	-0.250531	0.666867	-0.749773	-0.190581	0.680735	-0.728751	-0.201548	0.739400	-0.730531	-0.344490	0.310931	-0.751512	-0.365961	0.276662	-0.749616	-0.309628	0.249780	-0.740138	-0.294715	0.291345	-0.744225	-0.459249	0.120779	-0.704516	-0.324271	0.028519	-0.755894	-0.293044	0.030887	-0.680200	-0.271348	0.022641	-0.685779	
627	3.1350	-0.327394	1.365107	-0.579862	-0.293658	1.334681	-0.755348	-0.279557	1.346450	-0.405993	-0.205726	1.319963	-0.583475	-0.214043	0.932647	-0.481803	-0.200399	0.940231	-0.664961	-0.286068	0.972312	-0.441098	-0.267426	0.981294	-0.709770	-0.359371	0.961122	-0.519342	-0.352312	0.966259	-0.631313	-0.359266	0.977001	-0.578101	-0.297834	0.754340	-0.416478	-0.276724	0.698628	-0.410902	-0.214983	0.717392	-0.413323	-0.228188	0.777207	-0.418549	-0.278236	0.334066	-0.393803	-0.302143	0.298699	-0.393377	-0.252384	0.272874	-0.417838	-0.233788	0.309073	-0.419922	-0.427034	0.116225	-0.446516	-0.290180	0.032411	-0.389981	-0.260746	0.031641	-0.465516	-0.236393	0.023461	-0.457758	-0.269705	0.729178	-0.752973	-0.251634	0.670319	-0.749840	-0.191398	0.683589	-0.729275	-0.201787	0.742370	-0.730988	-0.345895	0.313156	-0.751787	-0.367038	0.278681	-0.749818	-0.310425	0.252344	-0.740624	-0.295904	0.294013	-0.744735	-0.458272	0.122261	-0.704407	-0.324172	0.028681	-0.755843	-0.292907	0.030945	-0.680341	-0.271363	0.022662	-0.685881	
628	3.1400	-0.327833	1.368891	-0.579482	-0.294242	1.338463	-0.755127	-0.279214	1.350484	-0.405611	-0.206145	1.324196	-0.583404	-0.213024	0.936651	-0.481477	-0.199439	0.944381	-0.664453	-0.285246	0.976077	-0.441055	-0.266319	0.985225	-0.709452	-0.358227	0.964792	-0.519426	-0.351130	0.969954	-0.631294	-0.358119	0.980568	-0.578083	-0.298605	0.758492	-0.416583	-0.278172	0.702555	-0.410763	-0.216219	0.720643	-0.412401	-0.228743	0.780597	-0.417869	-0.281314	0.336473	-0.393129	-0.304790	0.300817	-0.393138	-0.254425	0.275582	-0.416736	-0.236206	0.311994	-0.418605	-0.426503	0.117199	-0.447067	-0.290202	0.032450	-0.390027	-0.260612	0.031687	-0.465350	-0.236431	0.023490	-0.457631	-0.270218	0.733266	-0.752943	-0.252748	0.674210	-0.749929	-0.192242	0.686845	-0.729766	-0.202019	0.745745	-0.731400	-0.347299	0.315699	-0.752258	-0.368069	0.281002	-0.750240	-0.311149	0.255287	-0.741309	-0.297078	0.297067	-0.745416	-0.457056	0.124019	-0.704581	-0.323966	0.028856	-0.755854	-0.292773	0.031017	-0.680539	-0.271394	0.022692	-0.686010	
629	3.1450	-0.328339	1.373052	-0.579073	-0.294874	1.342702	-0.754859	-0.278983	1.354955	-0.405278	-0.206610	1.328883	-0.583315	-0.211852	0.941000	-0.481207	-0.198430	0.948827	-0.663958	-0.284264	0.980263	-0.440990	-0.265070	0.989519	-0.709201	-0.356924	0.968895	-0.519471	-0.349845	0.974058	-0.631233	-0.356858	0.984542	-0.578034	-0.299235	0.763152	-0.416580	-0.279529	0.706964	-0.410534	-0.217364	0.724321	-0.411537	-0.229146	0.784411	-0.417215	-0.284579	0.339191	-0.392432	-0.307542	0.303184	-0.392859	-0.256570	0.278639	-0.415595	-0.238799	0.315270	-0.417275	-0.425821	0.118356	-0.447496	-0.290184	0.032512	-0.390058	-0.260463	0.031756	-0.465137	-0.236494	0.023530	-0.457477	-0.270680	0.737754	-0.752919	-0.253830	0.678501	-0.750030	-0.193073	0.690479	-0.730215	-0.202233	0.749494	-0.731758	-0.348679	0.318553	-0.752877	-0.369030	0.283604	-0.750840	-0.311782	0.258597	-0.742165	-0.298212	0.300503	-0.746245	-0.455577	0.126061	-0.704990	-0.323665	0.029045	-0.755912	-0.292634	0.031108	-0.680795	-0.271432	0.022735	-0.686174	
630	3.1500	-0.328880	1.377534	-0.578666	-0.295522	1.347325	-0.754558	-0.278848	1.359778	-0.405019	-0.207100	1.333939	-0.583212	-0.210561	0.945638	-0.481005	-0.197379	0.953513	-0.663484	-0.283071	0.984872	-0.440911	-0.263674	0.994167	-0.708995	-0.355471	0.973406	-0.519460	-0.348471	0.978539	-0.631123	-0.355503	0.988908	-0.577944	-0.299701	0.768248	-0.416457	-0.280755	0.711812	-0.410210	-0.218377	0.728390	-0.410743	-0.229379	0.788607	-0.416595	-0.287983	0.342204	-0.391719	-0.310359	0.305802	-0.392498	-0.258780	0.282020	-0.414420	-0.241533	0.318863	-0.415958	-0.424945	0.119738	-0.447832	-0.290123	0.032595	-0.390076	-0.260296	0.031852	-0.464875	-0.236580	0.023579	-0.457293	-0.271073	0.742578	-0.752896	-0.254834	0.683146	-0.750145	-0.193853	0.694464	-0.730612	-0.202406	0.753582	-0.732053	-0.350021	0.321708	-0.753609	-0.369905	0.286487	-0.751572	-0.312304	0.262239	-0.743160	-0.299287	0.304301	-0.747191	-0.453803	0.128382	-0.705572	-0.323280	0.029254	-0.755999	-0.292473	0.031227	-0.681105	-0.271469	0.022793	-0.686378	
631	3.1550	-0.329427	1.382273	-0.578284	-0.296158	1.352257	-0.754230	-0.278793	1.364873	-0.404841	-0.207609	1.339286	-0.583101	-0.209173	0.950525	-0.480880	-0.196310	0.958393	-0.663039	-0.281624	0.989876	-0.440825	-0.262162	0.999150	-0.708804	-0.353885	0.978286	-0.519388	-0.347025	0.983353	-0.630950	-0.354084	0.993605	-0.577800	-0.299988	0.773707	-0.416214	-0.281820	0.717021	-0.409787	-0.219229	0.732796	-0.410034	-0.229416	0.793124	-0.416022	-0.291473	0.345437	-0.390999	-0.313196	0.308659	-0.391986	-0.261024	0.285688	-0.413216	-0.244366	0.322752	-0.414669	-0.423847	0.121365	-0.448101	-0.290014	0.032702	-0.390084	-0.260108	0.031981	-0.464560	-0.236686	0.023646	-0.457076	-0.271371	0.747682	-0.752878	-0.255722	0.688086	-0.750276	-0.194549	0.698762	-0.730954	-0.202515	0.757961	-0.732280	-0.351289	0.325131	-0.754396	-0.370665	0.289626	-0.752382	-0.312692	0.266209	-0.744264	-0.300278	0.308433	-0.748224	-0.451713	0.130973	-0.706279	-0.322824	0.029484	-0.756086	-0.292264	0.031393	-0.681468	-0.271487	0.022870	-0.686629	
632	3.1600	-0.329956	1.387218	-0.577935	-0.296760	1.357422	-0.753884	-0.278801	1.370154	-0.404744	-0.208169	1.344821	-0.582982	-0.207727	0.955598	-0.480836	-0.195243	0.963425	-0.662621	-0.279922	0.995245	-0.440747	-0.260594	1.004413	-0.708582	-0.352195	0.983494	-0.519248	-0.345519	0.988467	-0.630716	-0.352625	0.998609	-0.577598	-0.300070	0.779476	-0.415860	-0.282714	0.722531	-0.409268	-0.219904	0.737457	-0.409410	-0.229241	0.797898	-0.415512	-0.295002	0.348869	-0.390286	-0.316030	0.311755	-0.391318	-0.263263	0.289624	-0.411985	-0.247249	0.326907	-0.413414	-0.422489	0.123255	-0.448288	-0.289854	0.032836	-0.390087	-0.259893	0.032153	-0.464193	-0.236805	0.023730	-0.456830	-0.271552	0.753006	-0.752874	-0.256469	0.693253	-0.750417	-0.195141	0.703318	-0.731232	-0.202546	0.762585	-0.732430	-0.352455	0.328792	-0.755200	-0.371284	0.292993	-0.753232	-0.312928	0.270465	-0.745452	-0.301172	0.312850	-0.749315	-0.449287	0.133836	-0.707062	-0.322303	0.029747	-0.756163	-0.291991	0.031608	-0.681875	-0.271481	0.022966	-0.686931	
633	3.1650	-0.330450	1.392309	-0.577624	-0.297308	1.362742	-0.753529	-0.278854	1.375549	-0.404720	-0.208768	1.350476	-0.582860	-0.206253	0.960796	-0.480872	-0.194202	0.968573	-0.662235	-0.277969	1.000920	-0.440690	-0.259027	1.009898	-0.708305	-0.350436	0.988982	-0.519018	-0.343983	0.993825	-0.630405	-0.351150	1.003878	-0.577326	-0.299949	0.785473	-0.415392	-0.283422	0.728280	-0.408664	-0.220394	0.742309	-0.408882	-0.228861	0.802854	-0.415084	-0.298503	0.352413	-0.389668	-0.318850	0.315080	-0.390512	-0.265452	0.293802	-0.410739	-0.250132	0.331303	-0.412171	-0.420829	0.125436	-0.448398	-0.289635	0.032998	-0.390091	-0.259648	0.032376	-0.463779	-0.236929	0.023828	-0.456559	-0.271601	0.758488	-0.752890	-0.257053	0.698596	-0.750575	-0.195613	0.708073	-0.731434	-0.202487	0.767397	-0.732501	-0.353504	0.332654	-0.756003	-0.371740	0.296524	-0.754091	-0.312992	0.274957	-0.746698	-0.301945	0.317515	-0.750441	-0.446499	0.136963	-0.707875	-0.321708	0.030067	-0.756212	-0.291638	0.031878	-0.682316	-0.271441	0.023086	-0.687286	
634	3.1700	-0.330887	1.397491	-0.577352	-0.297786	1.368154	-0.753170	-0.278937	1.380997	-0.404754	-0.209392	1.356178	-0.582739	-0.204786	0.966065	-0.480976	-0.193214	0.973806	-0.661880	-0.275782	1.006839	-0.440666	-0.257519	1.015545	-0.707958	-0.348630	0.994697	-0.518704	-0.342430	0.999369	-0.629996	-0.349660	1.009359	-0.576976	-0.299636	0.791619	-0.414821	-0.283950	0.734190	-0.407978	-0.220704	0.747293	-0.408452	-0.228288	0.807927	-0.414761	-0.301937	0.356092	-0.389095	-0.321649	0.318632	-0.389554	-0.267567	0.298187	-0.409481	-0.252993	0.335891	-0.410996	-0.418829	0.127902	-0.448367	-0.289353	0.033192	-0.390101	-0.259364	0.032652	-0.463333	-0.237047	0.023941	-0.456265	-0.271518	0.764074	-0.752929	-0.257469	0.704059	-0.750758	-0.195961	0.712978	-0.731553	-0.202334	0.772352	-0.732481	-0.354422	0.336659	-0.756781	-0.372019	0.300200	-0.754924	-0.312876	0.279646	-0.747995	-0.302590	0.322372	-0.751601	-0.443324	0.140327	-0.708686	-0.321023	0.030466	-0.756219	-0.291198	0.032208	-0.682779	-0.271358	0.023229	-0.687686	
635	3.1750	-0.331258	1.402706	-0.577114	-0.298187	1.373591	-0.752813	-0.279039	1.386446	-0.404820	-0.210032	1.361866	-0.582623	-0.203347	0.971353	-0.481143	-0.192299	0.979092	-0.661552	-0.273430	1.012914	-0.440670	-0.256116	1.021289	-0.707539	-0.346806	1.000575	-0.518309	-0.340894	1.005047	-0.629474	-0.348174	1.014988	-0.576539	-0.299146	0.797844	-0.414168	-0.284310	0.740181	-0.407229	-0.220858	0.752320	-0.408114	-0.227548	0.813042	-0.414537	-0.305256	0.359869	-0.388566	-0.324358	0.322331	-0.388569	-0.269571	0.302751	-0.408216	-0.255774	0.340654	-0.409868	-0.416499	0.130628	-0.448175	-0.289000	0.033428	-0.390126	-0.259017	0.032992	-0.462868	-0.237143	0.024070	-0.455958	-0.271308	0.769719	-0.752987	-0.257730	0.709588	-0.750964	-0.196197	0.717984	-0.731596	-0.202100	0.777401	-0.732362	-0.355192	0.340751	-0.757507	-0.372111	0.303953	-0.755709	-0.312573	0.284480	-0.749331	-0.303097	0.327365	-0.752790	-0.439751	0.143918	-0.709483	-0.320228	0.030961	-0.756173	-0.290660	0.032600	-0.683247	-0.271219	0.023398	-0.688127	
